<svg
    version="1.0"
    xmlns="http://www.w3.org/2000/svg"
    xmlns:xlink="http://www.w3.org/1999/xlink"
    width="512"
    height="512"
    viewBox="0 0 512 512"
  >
    <svg id="global-svg-defs" version="1.0" xmlns="http://www.w3.org/2000/svg" width="0" height="0" viewBox="0 0 340.000000 250.000000" preserveAspectRatio="xMidYMid meet" color-interpolation-filters="sRGB" class="el-tooltip" style="margin: auto;" xmlns:xlink="http://www.w3.org/1999/xlink">
    <defs>
      <pattern id="watermark" patternUnits="userSpaceOnUse" width="100%" height="100%">
        <image xlink:href="https://www.logosc.cn/img/watermark/LOGOSC-watermark.png" x="0" y="0" width="100%" height="100%">
        </image>
      </pattern>
                    <linearGradient id="92" x1="0%" y1="0%" x2="100%" y2="0%">
          <stop offset="0%" stop-color="#fa71cd"></stop>
          <stop offset="100%" stop-color="#9b59b6"></stop>
        </linearGradient>
              <linearGradient id="93" x1="0%" y1="0%" x2="100%" y2="0%">
          <stop offset="0%" stop-color="#f9d423"></stop>
          <stop offset="100%" stop-color="#f83600"></stop>
        </linearGradient>
              <linearGradient id="94" x1="0%" y1="0%" x2="100%" y2="0%">
          <stop offset="0%" stop-color="#0064d2"></stop>
          <stop offset="100%" stop-color="#1cb0f6"></stop>
        </linearGradient>
              <linearGradient id="95" x1="0%" y1="0%" x2="100%" y2="0%">
          <stop offset="0%" stop-color="#f00978"></stop>
          <stop offset="100%" stop-color="#3f51b1"></stop>
        </linearGradient>
              <linearGradient id="96" x1="0%" y1="0%" x2="100%" y2="0%">
          <stop offset="0%" stop-color="#7873f5"></stop>
          <stop offset="100%" stop-color="#ec77ab"></stop>
        </linearGradient>
              <linearGradient id="97" x1="0%" y1="0%" x2="100%" y2="0%">
          <stop offset="0%" stop-color="#f9d423"></stop>
          <stop offset="100%" stop-color="#e14fad"></stop>
        </linearGradient>
              <linearGradient id="98" x1="0%" y1="0%" x2="100%" y2="0%">
          <stop offset="0%" stop-color="#009efd"></stop>
          <stop offset="100%" stop-color="#2af598"></stop>
        </linearGradient>
              <linearGradient id="99" x1="0%" y1="0%" x2="100%" y2="0%">
          <stop offset="0%" stop-color="#ffcc00"></stop>
          <stop offset="100%" stop-color="#00b140"></stop>
        </linearGradient>
              <linearGradient id="100" x1="0%" y1="0%" x2="100%" y2="0%">
          <stop offset="0%" stop-color="#d51007"></stop>
          <stop offset="100%" stop-color="#ff8177"></stop>
        </linearGradient>
              <linearGradient id="102" x1="0%" y1="0%" x2="100%" y2="0%">
          <stop offset="0%" stop-color="#a2b6df"></stop>
          <stop offset="100%" stop-color="#0c3483"></stop>
        </linearGradient>
              <linearGradient id="103" x1="0%" y1="0%" x2="100%" y2="0%">
          <stop offset="0%" stop-color="#7ac5d8"></stop>
          <stop offset="100%" stop-color="#eea2a2"></stop>
        </linearGradient>
              <linearGradient id="104" x1="0%" y1="0%" x2="100%" y2="0%">
          <stop offset="0%" stop-color="#00ecbc"></stop>
          <stop offset="100%" stop-color="#007adf"></stop>
        </linearGradient>
              <linearGradient id="105" x1="0%" y1="0%" x2="100%" y2="0%">
          <stop offset="0%" stop-color="#b88746"></stop>
          <stop offset="100%" stop-color="#fdf5a6"></stop>
        </linearGradient>
              <linearGradient id="107" x1="0%" y1="0%" x2="100%" y2="0%">
          <stop offset="0%" stop-color="#ffbf00"></stop>
          <stop offset="100%" stop-color="#26b5f8"></stop>
        </linearGradient>
          </defs>
  </svg>
    <rect
      x="0"
      y="0"
      width="100%"
      height="100%"
      fill="transparent"
      fill-opacity="1"
    ></rect>
    <svg data-v-0dd9719b="" version="1.0" xmlns="http://www.w3.org/2000/svg" xmlns:xlink="http://www.w3.org/1999/xlink" width="100%" height="100%" viewBox="-0.002779447240754962 0 100.00277709960938 49.48118591308594" preserveAspectRatio="xMidYMid meet" color-interpolation-filters="sRGB" style="margin: auto;"> <rect data-v-0dd9719b="" x="0" y="0" width="100%" height="100%" fill="#ffffff" fill-opacity="1" class="background" style="display: none;"/> <rect data-v-0dd9719b="" x="0" y="0" width="100%" height="100%" fill="url(#watermark)" fill-opacity="1" class="watermarklayer" style="display: none;"/> <g data-v-0dd9719b="" class="imagesvg isNoFont"><g><rect fill="#333" fill-opacity="0" stroke-width="2" x="0" y="0" width="100" height="49.47891675691978" class="image-rect"/> <svg filter="url(#colors7510844653)" x="0" y="0" width="100" height="49.47891675691978" filtersec="colorsb7406424678" class="image-svg-svg primary" style="overflow: visible;"><svg xmlns="http://www.w3.org/2000/svg" xmlns:xlink="http://www.w3.org/1999/xlink" viewBox="0 0 135.75 67.1676294975186"><path transform="translate(-4.3225446428571415 61.15024038461537)" d="M17.44 5.98L17.44 5.98Q19.20 6.19 21.13 5.31Q23.06 4.43 23.20 3.30L23.20 3.30Q23.20 3.16 23.27 2.95L23.27 2.95Q23.34 1.97 24.12 1.76L24.12 1.76Q25.17 1.41 33.89 1.41L33.89 1.41L36.42 1.41Q37.13 1.41 38.46 1.41L38.46 1.41Q46.90 1.41 48.27 1.65Q49.64 1.90 49.57 3.45L49.57 3.45Q49.57 3.73 49.57 3.87L49.57 3.87Q49.57 5.41 50.48 5.66Q51.40 5.91 53.86 5.13L53.86 5.13Q54.07 5.06 54.49 4.92L54.49 4.92Q55.97 4.50 56.25 3.73L56.25 3.73Q56.60 2.74 56.39-3.94L56.39-3.94Q56.32-5.48 56.32-6.33L56.32-6.33Q56.11-15.05 56.29-17.02Q56.46-18.98 57.45-19.62L57.45-19.62Q58.71-20.32 58.75-20.71Q58.78-21.09 57.87-22.01L57.87-22.01Q56.81-23.06 55.05-24.40Q53.30-25.73 52.66-25.88L52.66-25.88Q52.31-25.95 50.63-24.26L50.63-24.26Q49.36-22.92 49.01-22.78L49.01-22.78Q47.95-22.29 40.22-22.29L40.22-22.29Q37.05-22.29 36.07-22.29L36.07-22.29Q25.80-22.29 24.47-22.43Q23.13-22.57 19.55-24.12L19.55-24.12Q16.38-25.45 16.10-25.45L16.10-25.45Q15.89-25.45 16.24-21.87L16.24-21.87Q16.24-21.66 16.31-21.09L16.31-21.09Q16.66-17.37 16.66-9.21Q16.66-1.05 16.31 3.80L16.31 3.80Q16.10 5.77 17.44 5.98ZM48.80-0.77L48.80-0.77Q48.30-0.49 36.39-0.53Q24.47-0.56 24.05-0.84L24.05-0.84Q23.06-1.41 23.06-5.13Q23.06-8.86 24.05-9.42L24.05-9.42Q24.54-9.70 36.42-9.70Q48.30-9.70 48.80-9.42L48.80-9.42Q49.78-8.86 49.78-5.10Q49.78-1.34 48.80-0.77ZM48.66-11.95L48.66-11.95Q48.09-11.67 36.42-11.67Q24.75-11.67 24.19-11.95L24.19-11.95Q23.13-12.45 23.10-15.96Q23.06-19.48 24.05-20.11L24.05-20.11Q24.54-20.39 36.42-20.39Q48.30-20.39 48.80-20.11L48.80-20.11Q49.78-19.48 49.75-15.96Q49.71-12.45 48.66-11.95ZM4.92-22.01L4.92-22.01Q5.20-21.73 5.41-21.76Q5.63-21.80 7.17-22.36L7.17-22.36Q17.09-26.02 21.30-32.20L21.30-32.20Q22.71-34.31 23.55-34.24Q24.40-34.17 26.86-31.85L26.86-31.85Q29.53-29.18 31.01-26.86L31.01-26.86Q32.13-25.10 33.71-25.28Q35.30-25.45 35.86-26.93Q36.42-28.41 35.65-30.38L35.65-30.38Q34.73-32.34 32.17-33.93Q29.60-35.51 26.30-36.14L26.30-36.14Q23.48-36.77 24.47-38.95L24.47-38.95Q24.82-39.80 25.73-39.94Q26.65-40.08 31.85-40.15L31.85-40.15Q36.91-40.22 37.86-40.36Q38.81-40.50 38.95-41.13L38.95-41.13Q39.30-42.33 34.88-45.77L34.88-45.77Q33.33-46.90 32.87-46.79Q32.41-46.69 30.80-44.65L30.80-44.65Q29.60-43.17 29.04-42.75Q28.48-42.33 27.56-42.26L27.56-42.26Q25.95-42.12 25.59-42.82Q25.24-43.52 25.45-46.13L25.45-46.13Q25.45-46.34 25.52-46.76L25.52-46.76Q25.66-49.50 26.23-49.99L26.23-49.99Q26.93-50.48 30.80-50.55L30.80-50.55Q31.50-50.55 31.85-50.55L31.85-50.55Q35.86-50.63 36.63-50.73Q37.41-50.84 37.69-51.33L37.69-51.33Q38.32-52.24 34.38-55.55L34.38-55.55Q32.34-57.23 31.78-57.16Q31.22-57.09 29.81-55.13L29.81-55.13Q28.34-53.16 27.70-52.95L27.70-52.95Q27.07-52.66 23.34-52.59L23.34-52.59Q19.97-52.59 19.20-52.66Q18.42-52.73 18.07-53.09L18.07-53.09Q17.51-53.65 18.14-55.13Q18.77-56.60 19.90-57.16L19.90-57.16Q21.30-57.87 19.48-58.71L19.48-58.71Q18.28-59.27 15.26-60.26L15.26-60.26Q12.66-61.10 12.45-60.96L12.45-60.96Q12.23-60.82 12.09-59.27L12.09-59.27Q11.32-51.82 8.37-45.84L8.37-45.84Q7.52-44.09 7.49-43.95Q7.45-43.80 7.59-43.45L7.59-43.45Q8.09-42.96 6.96-42.75L6.96-42.75Q6.26-42.61 5.27-42.68L5.27-42.68Q4.36-42.75 4.32-42.50Q4.29-42.26 4.99-40.85L4.99-40.85Q5.70-39.59 5.91-39.45Q6.12-39.30 7.38-39.52L7.38-39.52Q12.23-40.43 15.19-40.18Q18.14-39.94 18.14-38.60L18.14-38.60Q18.14-35.16 14.73-30.83Q11.32-26.51 6.47-23.77L6.47-23.77Q5.70-23.34 5.31-23.10Q4.92-22.85 4.78-22.68Q4.64-22.50 4.68-22.36Q4.71-22.22 4.92-22.01ZM17.93-42.47L17.93-42.47Q17.16-42.12 13.57-42.19Q9.98-42.26 9.28-42.75L9.28-42.75Q8.72-43.03 8.86-43.38Q9-43.73 10.13-44.72L10.13-44.72Q12.30-46.41 14.34-48.87L14.34-48.87Q15.26-50.20 16.63-50.52Q18-50.84 18.70-49.99L18.70-49.99Q19.55-49.08 19.23-45.98Q18.91-42.89 17.93-42.47ZM40.29-26.37L40.29-26.37Q41.48-25.10 44.05-26.37Q46.62-27.63 46.62-29.46L46.62-29.46Q46.62-31.36 47.36-31.68Q48.09-31.99 52.38-31.99L52.38-31.99Q56.74-31.99 57.48-31.68Q58.22-31.36 58.15-29.32L58.15-29.32Q58.15-27.56 58.96-27.28Q59.77-27 62.23-27.77L62.23-27.77Q64.41-28.48 64.76-29.04Q65.11-29.60 64.97-32.06L64.97-32.06Q63.84-49.15 66.23-50.41L66.23-50.41Q67.43-51.05 67.29-51.61Q67.15-52.17 65.53-53.51L65.53-53.51Q63.35-55.34 62.47-55.86Q61.59-56.39 60.96-56.25Q60.33-56.11 59.34-54.98L59.34-54.98Q57.87-53.44 57.09-53.23Q56.32-53.02 51.96-53.02L51.96-53.02Q47.88-53.02 46.93-53.19Q45.98-53.37 42.89-54.70L42.89-54.70Q42.19-54.98 41.38-55.34Q40.57-55.69 40.15-55.83L40.15-55.83L39.73-56.04Q39.52-56.04 39.94-51.54L39.94-51.54Q40.22-48.16 40.22-41.70L40.22-41.70Q40.29-33.33 39.94-27.98L39.94-27.98Q39.80-26.79 40.29-26.37ZM57.45-34.17L57.45-34.17Q56.95-33.89 52.38-33.93Q47.81-33.96 47.39-34.24L47.39-34.24Q46.76-34.59 46.65-35.65Q46.55-36.70 46.55-42.47L46.55-42.47Q46.55-43.38 46.55-44.93L46.55-44.93Q46.48-49.50 47.00-50.27Q47.53-51.05 50.77-50.98L50.77-50.98Q51.82-50.98 52.38-50.98L52.38-50.98Q56.60-50.98 57.09-50.77L57.09-50.77Q58.22-50.34 58.29-47.74L58.29-47.74Q58.29-47.67 58.29-42.47L58.29-42.47Q58.29-36.63 58.18-35.58Q58.08-34.52 57.45-34.17ZM86.70 5.91L86.70 5.91Q87.89 6.19 89.75 5.63Q91.62 5.06 92.60 4.15L92.60 4.15Q93.09 3.73 93.13 3.45Q93.16 3.16 93.09 1.69L93.09 1.69Q92.74-5.63 92.67-16.73L92.67-16.73Q92.60-26.37 92.74-28.27Q92.88-30.16 93.87-30.45L93.87-30.45Q94.36-30.52 94.61-30.80Q94.85-31.08 94.82-31.32Q94.78-31.57 94.43-31.71Q94.08-31.85 93.97-32.06Q93.87-32.27 94.04-32.80Q94.22-33.33 94.68-34.10Q95.13-34.88 95.98-36.28L95.98-36.28Q96.68-37.41 98.05-39.87Q99.42-42.33 99.84-42.96L99.84-42.96Q99.91-43.10 100.05-43.31L100.05-43.31Q100.41-44.02 102.66-44.16Q104.91-44.30 117.28-44.37L117.28-44.37Q119.04-44.37 119.95-44.37L119.95-44.37Q134.65-44.44 136.86-44.51Q139.08-44.58 139.43-45.14L139.43-45.14Q140.13-46.20 134.86-50.13L134.86-50.13Q132.68-51.82 132.19-51.71Q131.70-51.61 129.87-49.22L129.87-49.22Q129.59-48.87 129.23-48.30L129.23-48.30Q128.18-46.83 126.91-46.58Q125.65-46.34 118.76-46.34L118.76-46.34Q116.37-46.34 114.96-46.34L114.96-46.34Q113.77-46.34 111.66-46.34L111.66-46.34Q103.57-46.34 102.59-46.83L102.59-46.83Q101.81-47.25 102.52-49.08L102.52-49.08Q102.59-49.22 102.73-49.57L102.73-49.57Q103.08-50.27 103.22-50.70L103.22-50.70Q103.50-51.40 104.03-52.80Q104.55-54.21 104.70-54.56L104.70-54.56Q105.47-56.81 106.66-57.30L106.66-57.30Q108.14-57.94 105.47-58.99L105.47-58.99Q103.92-59.63 100.41-60.61L100.41-60.61Q98.09-61.31 97.95-61.10L97.95-61.10Q97.80-60.96 97.66-59.70L97.66-59.70Q97.17-54.84 96.01-51.01Q94.85-47.18 93.87-46.69L93.87-46.69Q93.16-46.41 87.33-46.41Q81.49-46.41 77.48-46.76L77.48-46.76Q76.50-46.90 76.50-46.55L76.50-46.55Q76.50-46.27 77.27-44.93L77.27-44.93Q77.91-43.73 78.29-43.63Q78.68-43.52 81.49-43.95L81.49-43.95Q83.32-44.23 87.36-44.33Q91.41-44.44 91.97-44.30L91.97-44.30Q93.09-44.02 92.85-42.71Q92.60-41.41 90.56-37.34L90.56-37.34Q89.37-34.95 88.63-34.17Q87.89-33.40 87.05-33.68L87.05-33.68Q86.55-33.82 86.45-33.57Q86.34-33.33 86.27-31.78L86.27-31.78Q86.20-29.88 85.92-29.25L85.92-29.25Q85.29-27.77 82.76-24.57Q80.23-21.38 77.55-18.56L77.55-18.56Q75.59-16.52 75.87-16.31L75.87-16.31Q75.94-16.24 76.08-16.17L76.08-16.17Q76.36-16.03 78.36-17.40Q80.37-18.77 82.55-20.60L82.55-20.60Q84.30-22.08 84.94-22.32Q85.57-22.57 85.92-21.94Q86.27-21.30 86.24-14.38Q86.20-7.45 85.85-0.63L85.85-0.63Q85.57 3.87 85.71 4.78Q85.85 5.70 86.70 5.91ZM96.54 4.43L96.54 4.43Q96.82 4.71 98.16 4.43L98.16 4.43Q101.18 3.94 103.99 3.87Q106.80 3.80 120.94 3.73L120.94 3.73Q138.87 3.66 139.71 3.38L139.71 3.38Q139.92 3.30 140.06 2.81L140.06 2.81Q140.20 2.25 138.38 0.42Q136.55-1.41 134.30-2.95L134.30-2.95Q133.24-3.66 132.79-3.38Q132.33-3.09 130.78-1.05L130.78-1.05Q129.23 1.13 128.53 1.41Q127.83 1.69 124.38 1.76L124.38 1.76Q120.80 1.83 120.45 1.69L120.45 1.69Q119.32 1.27 119.18-1.62L119.18-1.62Q119.18-1.90 119.18-10.13L119.18-10.13Q119.18-11.67 119.18-14.13L119.18-14.13Q119.11-20.11 119.81-21.09Q120.52-22.08 125.02-22.01L125.02-22.01Q126.91-22.01 128.11-22.01L128.11-22.01Q135.91-22.08 136.48-22.92L136.48-22.92Q137.04-23.77 133.31-26.58L133.31-26.58Q132.82-26.93 132.19-27.42L132.19-27.42Q130.78-28.48 130.29-28.65Q129.80-28.83 129.41-28.58Q129.02-28.34 128.18-27.14L128.18-27.14Q126.49-24.82 125.79-24.43Q125.09-24.05 122.70-24.05L122.70-24.05Q122.55-24.05 122.41-24.05L122.41-24.05Q119.95-24.05 119.53-24.79Q119.11-25.52 119.18-30.09L119.18-30.09Q119.18-30.59 119.18-30.87L119.18-30.87Q119.18-34.88 119.32-35.82Q119.46-36.77 120.02-37.13L120.02-37.13Q121.78-37.97 117.98-39.23L117.98-39.23Q116.72-39.66 114.68-40.15L114.68-40.15Q112.36-40.71 112.01-40.68Q111.66-40.64 111.73-39.73L111.73-39.73Q112.22-36.56 112.39-31.08Q112.57-25.59 112.22-25.03L112.22-25.03Q111.45-23.34 98.58-24.40L98.58-24.40Q97.59-24.54 97.56-24.33Q97.52-24.12 98.16-22.71L98.16-22.71Q98.72-21.45 99-21.27Q99.28-21.09 100.34-21.23L100.34-21.23Q103.29-21.73 107.05-21.94Q110.81-22.15 111.45-21.80L111.45-21.80Q112.15-21.45 112.22-20.81L112.22-20.81Q112.43-19.90 112.43-10.13L112.43-10.13Q112.43-9.42 112.43-8.09L112.43-8.09Q112.43-1.27 112.32-0.07Q112.22 1.13 111.59 1.48L111.59 1.48Q111.52 1.55 111.45 1.55L111.45 1.55Q110.95 1.83 104.55 1.69Q98.16 1.55 95.70 1.20L95.70 1.20Q94.92 1.05 95.41 2.46L95.41 2.46Q95.77 3.38 96.54 4.43Z"/></svg></svg> <defs><filter id="colors7510844653"><feColorMatrix type="matrix" values="0 0 0 0 0.19921875  0 0 0 0 0.19921875  0 0 0 0 0.19921875  0 0 0 1 0" class="icon-fecolormatrix"/></filter> <filter id="colorsf1616883931"><feColorMatrix type="matrix" values="0 0 0 0 0.99609375  0 0 0 0 0.99609375  0 0 0 0 0.99609375  0 0 0 1 0" class="icon-fecolormatrix"/></filter> <filter id="colorsb7406424678"><feColorMatrix type="matrix" values="0 0 0 0 0  0 0 0 0 0  0 0 0 0 0  0 0 0 1 0" class="icon-fecolormatrix"/></filter></defs></g></g><defs v-gra="od"/></svg>
  </svg>